<?xml version="1.0" encoding="utf-8"?>
<!-- Generator: Adobe Illustrator 22.0.1, SVG Export Plug-In . SVG Version: 6.00 Build 0)  -->
<svg version="1.1" xmlns="http://www.w3.org/2000/svg" xmlns:xlink="http://www.w3.org/1999/xlink" x="0px" y="0px"
	 viewBox="0 0 245.4 242" style="enable-background:new 0 0 245.4 242;" xml:space="preserve">
<style type="text/css">
	.st0{fill:#FFFFFF;}
	.st1{fill:none;stroke:#FFFFFF;stroke-width:6;stroke-miterlimit:10;}
</style>
<g id="ZEAL">
	<g>
		<g>
			<path class="st0" d="M137.3,159.4c-1.4-1.8-2.7-3.7-4.2-5.4c-8.5-9.3-18.5-16.3-30.5-20.3c-8.4-2.8-17-4.1-25.8-4.6
				c-6.2-0.3-12.3-0.5-18.4,0.5c-3.7,0.6-7.1,2.4-10.7,3.1c-4.9,0.9-10.1,2.1-14.3-1.9c-2.8-2.6-4-6.3-4.3-10
				c-0.9-11.2,0.4-22.2,4.5-32.7c3.3-8.3,7.7-16.1,15.2-21.5c6.8-4.9,13.8-3.9,20.9-0.6c9.7,4.5,18.2,10.9,26.9,17
				c9,6.3,18,12.6,27.8,17.6c9.7,4.9,19.8,9.3,29.6,14.1c16,7.8,24.4,20.9,26.8,38.3c1,7.8,1.2,15.6,1.4,23.4
				c0.2,6.2,0.7,12.4-1.9,18.3c-2.2,4.8-6.5,7.8-10.5,10.9c-9.2,7-19.9,9.8-31.1,11.2c-11.6,1.5-22.7-0.4-33.2-5.1
				c-6.8-3-12.7-7.7-17.6-13.4c-5.6-6.5-10.7-13.4-12.5-21.8c-2.8-13.1,2.3-18.9,14.7-21.7c14.6-3.4,29.1-2.2,43.2,3.1
				C134.6,158.3,135.9,158.9,137.3,159.4C137.3,159.4,137.3,159.4,137.3,159.4C137.3,159.4,137.3,159.4,137.3,159.4z"/>
			<path class="st0" d="M125.6,57.9c0.2-7.5,1.5-14.6,7.3-20.1c3.9-3.7,8.9-5.2,14-5.8c12-1.2,22.7,2.8,32.7,8.7
				c11,6.5,19.4,15.8,25.8,26.7c3.4,5.8,5.9,12.2,4.7,19.1c-1.3,7.5-7.9,9.3-13.9,11.3c-8.3,2.8-16.9,4.3-25.7,4.8
				c-8.2,0.5-16.2,0-23.7-3.5c-6-2.8-10.5-7.3-13.7-13C128,77.5,125.9,67.9,125.6,57.9z"/>
		</g>
	</g>
</g>
<g id="Layer_2">
	<circle class="st1" cx="123.9" cy="120.3" r="115.9"/>
</g>
</svg>
